# xmcd CD database file
#
# Track frame offsets:
#	150
#	19092
#	38869
#	57104
#	75623
#	95541
#	116374
#	134903
#	153463
#	172399
#	189092
#	206986
#
# Disc length: 2961 seconds
#
# Revision: 0
# Processed by: cddbd v1.5.2PL0 Copyright (c) Steve Scherf et al.
# Submitted via: CDex 1.70beta2
#
DISCID=a60b8f0c
DTITLE=Harper - Day By Day
DYEAR=2007
DGENRE=Blues
TTITLE0=Do What Is Right
TTITLE1=One Day
TTITLE2=Sure There's A Place
TTITLE3=Watch Your Back
TTITLE4=Just What You're Looking For
TTITLE5=I'll Go Home
TTITLE6=Feels Like Sunday Morning
TTITLE7=Get Out Of This Mess
TTITLE8=Face The Truth
TTITLE9=I Must Be Dreaming
TTITLE10=You Can't Hide
TTITLE11=The Comfort Zone
EXTD=YEAR: 2007
EXTT0=
EXTT1=
EXTT2=
EXTT3=
EXTT4=
EXTT5=
EXTT6=
EXTT7=
EXTT8=
EXTT9=
EXTT10=
EXTT11=
PLAYORDER=
